<svg xmlns="http://www.w3.org/2000/svg" xmlns:xlink="http://www.w3.org/1999/xlink" width="185.862" height="62.558" viewBox="0 0 185.862 62.558">
  <defs>
    <filter id="green" x="0" y="0" width="185.862" height="62.558" filterUnits="userSpaceOnUse">
      <feOffset dx="-2" dy="3" input="SourceAlpha"/>
      <feGaussianBlur stdDeviation="1" result="blur"/>
      <feFlood flood-color="#262a30" flood-opacity="0.122"/>
      <feComposite operator="in" in2="blur"/>
      <feComposite in="SourceGraphic"/>
    </filter>
  </defs>
  <g transform="matrix(1, 0, 0, 1, 0, 0)" filter="url(#green)">
    <g id="green-2" data-name="green" transform="translate(-81.75 -371.86)" fill="#fff">
      <path d="M 238.3332061767578 426.9217224121094 L 115.0286254882812 426.9217224121094 C 111.414192199707 426.9217224121094 107.9070281982422 426.2135314941406 104.6045989990234 424.8168029785156 C 101.4155349731445 423.4680480957031 98.5517578125 421.5375061035156 96.09282684326172 419.0787658691406 C 93.63385009765625 416.6200256347656 91.70310211181641 413.7564086914062 90.35418701171875 410.5675048828125 C 88.95730590820312 407.2651672363281 88.24900817871094 403.758056640625 88.24900817871094 400.1436157226562 C 88.24900817871094 396.5292053222656 88.95728302001953 393.0220336914062 90.35418701171875 389.7195434570312 C 91.70310211181641 386.530517578125 93.63382720947266 383.666748046875 96.09278106689453 381.2077941894531 C 98.55173492431641 378.7488708496094 101.4154891967773 376.818115234375 104.6045303344727 375.4692077636719 C 107.9070281982422 374.0723266601562 111.414192199707 373.364013671875 115.0286254882812 373.364013671875 L 238.3332061767578 373.364013671875 C 241.9476165771484 373.364013671875 245.4547119140625 374.0723266601562 248.7570495605469 375.4692077636719 C 251.9459381103516 376.818115234375 254.8095245361328 378.7488708496094 257.268310546875 381.2078247070312 C 259.7270202636719 383.6667785644531 261.6575622558594 386.5305480957031 263.00634765625 389.7196044921875 C 264.4030456542969 393.0220336914062 265.1112670898438 396.5291748046875 265.1112670898438 400.1436157226562 C 265.1112670898438 403.758056640625 264.4030456542969 407.2651672363281 263.0063171386719 410.5674438476562 C 261.6575622558594 413.7563781738281 259.7270202636719 416.6199645996094 257.2682495117188 419.0787353515625 C 254.8095092773438 421.5374755859375 251.9459228515625 423.4680480957031 248.7570037841797 424.8168029785156 C 245.4547119140625 426.2135314941406 241.9476470947266 426.9217224121094 238.3332061767578 426.9217224121094 Z" stroke="none"/>
      <path d="M 115.0286254882812 374.864013671875 C 101.067626953125 374.864013671875 89.7490234375 386.1826477050781 89.7490234375 400.1436157226562 C 89.7490234375 414.1046752929688 101.067626953125 425.4217224121094 115.0286254882812 425.4217224121094 L 238.3332214355469 425.4217224121094 C 252.2941589355469 425.4217224121094 263.6112670898438 414.1046752929688 263.6112670898438 400.1436157226562 C 263.6112670898438 386.1826477050781 252.2941589355469 374.864013671875 238.3332214355469 374.864013671875 L 115.0286254882812 374.864013671875 M 115.0286254882812 371.864013671875 L 238.3332214355469 371.864013671875 C 242.1495056152344 371.864013671875 245.8531951904297 372.6121520996094 249.3414459228516 374.0877075195312 C 252.7091217041016 375.5122680664062 255.7329711914062 377.5509643554688 258.3290100097656 380.1472473144531 C 260.9249877929688 382.7434387207031 262.9635009765625 385.7674560546875 264.3878784179688 389.1353149414062 C 265.8632202148438 392.6236267089844 266.6112670898438 396.3273620605469 266.6112670898438 400.1436157226562 C 266.6112670898438 403.9598693847656 265.8631896972656 407.66357421875 264.3878479003906 411.1517944335938 C 262.9634704589844 414.5195007324219 260.9249267578125 417.5433654785156 258.3289184570312 420.1393737792969 C 255.7328948974609 422.7354125976562 252.7090454101562 424.77392578125 249.3413238525391 426.1983337402344 C 245.8531494140625 427.6736755371094 242.1494750976562 428.4217224121094 238.3332214355469 428.4217224121094 L 115.0286254882812 428.4217224121094 C 111.2123718261719 428.4217224121094 107.5086212158203 427.6736755371094 104.0202941894531 426.1983337402344 C 100.6524505615234 424.7739562988281 97.62841796875 422.7354431152344 95.0322265625 420.1394958496094 C 92.43597412109375 417.54345703125 90.39724731445312 414.5195922851562 88.97271728515625 411.1518859863281 C 87.49716186523438 407.6636352539062 86.7490234375 403.9598999023438 86.7490234375 400.1436157226562 C 86.7490234375 396.3273315429688 87.49716186523438 392.6235961914062 88.97268676757812 389.1352233886719 C 90.397216796875 385.7673645019531 92.4359130859375 382.7433471679688 95.03213500976562 380.1471252441406 C 97.62834167480469 377.5509033203125 100.65234375 375.5122375488281 104.0202026367188 374.0876770019531 C 107.5085754394531 372.6121520996094 111.2123413085938 371.864013671875 115.0286254882812 371.864013671875 Z" stroke="none" fill="#abd64d"/>
    </g>
  </g>
</svg>
